# xmcd
#
# Track frame offsets:
#	150
#	12755
#	30572
#	48785
#	62737
#	82417
#	99225
#	119970
#	131865
#	149002
#	166125
#	185565
#	204625
#	218900
#
# Disc length: 3844 seconds
#
# Revision: 1
# Processed by: cddbd v1.5.2PL0 Copyright (c) Steve Scherf et al.
# Submitted via: audiograbber 1.83.01
#
DISCID=d30f020e
DTITLE=The Mahoney Brothers Band - The Mahoney Brothers Band
DYEAR=1998
DGENRE=
TTITLE0=Miss America
TTITLE1=Don´t Freeze Me Out
TTITLE2=Silence Speaks Loudest
TTITLE3=She Takes My Breath Away
TTITLE4=I´d Do Anything For You
TTITLE5=Double Shot Of The Truth
TTITLE6=Sweetwater Moon
TTITLE7=Heading Back To Memphis
TTITLE8=Long Neck And Tall Tales
TTITLE9=A Little Less Time On The Dance Floor
TTITLE10=The Rest Of My Life
TTITLE11=Country Gentlemen
TTITLE12=One On One
TTITLE13=Forever On My Mind
EXTD=
EXTT0=
EXTT1=
EXTT2=
EXTT3=
EXTT4=
EXTT5=
EXTT6=
EXTT7=
EXTT8=
EXTT9=
EXTT10=
EXTT11=
EXTT12=
EXTT13=
PLAYORDER=
